# xmcd CD database file
#
# Track frame offsets:
#	150
#	12067
#	24505
#	37942
#	54757
#	67047
#	80462
#	91130
#	114100
#	127735
#	140952
#	153522
#	167315
#	182809
#	208947
#	220430
#	232495
#	243817
#	259455
#	272395
#
# Disc length: 3961 seconds
#
# Revision: 5
# Processed by: cddbd v1.5.2PL0 Copyright (c) Steve Scherf et al.
# Submitted via: CDex 1.51
#
DISCID=0e0f7714
DTITLE=Various Artist - Greatest Blues of AllTime Disc 3
DYEAR=1998
DGENRE=Blues
TTITLE0=B. B. King - Help The Poor
TTITLE1=Big Joe Turner - Doggin' The Dog
TTITLE2=Bobby Bland - Farther Up The Road
TTITLE3=Buddy Guy - Buddy's Groove
TTITLE4=Elmore James - The Sun Is Shining
TTITLE5=Howlin' Wolf - Tail Dragger
TTITLE6=Jimmy Reed - Heartaches And Troubles
TTITLE7=John Lee Hooker - Tantalizing With The Blues
TTITLE8=Koko Taylor - Wang Dang Doodle
TTITLE9=Memphis Minnie - Weary Woman's Blues
TTITLE10=Muddy Waters - Can't Get No Grindin' (What's The Matter With The Mill)
TTITLE11=T-Bone Walker - Party Girl
TTITLE12=Bobby Bland - Driftin' Blues
TTITLE13=B. B. King - Let Me Make You Cry A Little Longer
TTITLE14=Little Junior Parker - Mother In-Law Blues
TTITLE15=Little Milton - We're Gonna Make It
TTITLE16=Muddy Waters - Sugar Sweet
TTITLE17=B. B. King and Bobby Bland - I Like To Live The Love
TTITLE18=T-Bone Walker - Confusion Blues
TTITLE19=B. B. King and Bobby Bland - Let The Good Times Roll (Live at the Coconut Grove)
EXTD=YEAR: 1998
EXTT0=
EXTT1=
EXTT2=
EXTT3=
EXTT4=
EXTT5=
EXTT6=
EXTT7=
EXTT8=
EXTT9=
EXTT10=
EXTT11=
EXTT12=
EXTT13=
EXTT14=
EXTT15=
EXTT16=
EXTT17=
EXTT18=
EXTT19=
PLAYORDER=
